<svg width="400" height="400" viewBox="0 0 400 400" fill="none" xmlns="http://www.w3.org/2000/svg">
<rect width="400" height="400" fill="#0A1620"/>
<path d="M253.333 296C256.162 296 258.875 294.877 260.876 292.876C262.876 290.876 264 288.163 264 285.334V228.267C264 223.392 267.371 219.264 271.755 217.163C280.832 212.833 288.087 205.436 292.241 196.276C296.395 187.117 297.18 176.785 294.458 167.104C291.735 157.422 285.681 149.014 277.362 143.362C269.043 137.71 258.995 135.178 248.992 136.214C244.872 126.637 238.036 118.478 229.329 112.745C220.621 107.012 210.425 103.957 200 103.957C189.575 103.957 179.378 107.012 170.671 112.745C161.964 118.478 155.128 126.637 151.008 136.214C141.009 135.186 130.968 137.721 122.655 143.372C114.343 149.024 108.292 157.429 105.571 167.105C102.85 176.782 103.632 187.108 107.78 196.264C111.928 205.42 119.176 212.818 128.245 217.152C132.629 219.264 136 223.392 136 228.256V285.334C136 288.163 137.124 290.876 139.124 292.876C141.124 294.877 143.838 296 146.667 296H253.333Z" stroke="#EDE6D6" stroke-width="21.3333" stroke-linecap="round" stroke-linejoin="round"/>
<path d="M136 253.333H264" stroke="#EDE6D6" stroke-width="21.3333" stroke-linecap="round" stroke-linejoin="round"/>
</svg>
