<svg width="1019" height="441" viewBox="0 0 1019 441" fill="none" xmlns="http://www.w3.org/2000/svg">
<g clip-path="url(#clip0_23_45)">
<path d="M944.333 224C947.162 224 949.875 222.877 951.876 220.876C953.876 218.876 955 216.163 955 213.334V156.267C955 151.392 958.371 147.264 962.755 145.163C971.832 140.833 979.087 133.436 983.241 124.276C987.395 115.117 988.18 104.785 985.458 95.1039C982.735 85.4224 976.681 77.0137 968.362 71.3619C960.043 65.71 949.995 63.1784 939.992 64.2136C935.872 54.6372 929.036 46.4781 920.329 40.7452C911.621 35.0124 901.425 31.957 891 31.957C880.575 31.957 870.378 35.0124 861.671 40.7452C852.964 46.4781 846.128 54.6372 842.008 64.2136C832.009 63.1856 821.968 65.7209 813.655 71.3724C805.343 77.024 799.292 85.429 796.571 95.1054C793.85 104.782 794.632 115.108 798.78 124.264C802.928 133.42 810.176 140.818 819.245 145.152C823.629 147.264 827 151.392 827 156.256V213.334C827 216.163 828.124 218.876 830.124 220.876C832.124 222.877 834.838 224 837.667 224H944.333Z" stroke="#EDE6D6" stroke-width="18" stroke-linecap="round" stroke-linejoin="round"/>
<path d="M827 181.333H955" stroke="#EDE6D6" stroke-width="18" stroke-linecap="round" stroke-linejoin="round"/>
<path d="M30.6 186H18C15.7333 186 14.6 184.867 14.6 182.6V60.8C14.6 58.5333 15.7333 57.4 18 57.4H30.6C32.8667 57.4 34 58.5333 34 60.8V110.8C34 112.133 34.8 112.8 36.4 112.8H78.6C79.9333 112.8 80.6 112.133 80.6 110.8V60.8C80.6 58.5333 81.7333 57.4 84 57.4H96.8C99.0667 57.4 100.2 58.5333 100.2 60.8V182.6C100.2 184.867 99.0667 186 96.8 186H84C81.7333 186 80.6 184.867 80.6 182.6V132C80.6 130.667 79.9333 130 78.6 130H36.4C34.8 130 34 130.667 34 132V182.6C34 184.867 32.8667 186 30.6 186ZM192.044 186H179.244C176.977 186 175.844 184.867 175.844 182.6V138.4L138.444 61C137.91 59.9333 137.91 59.0667 138.444 58.4C138.977 57.7333 139.71 57.4 140.644 57.4H156.644C158.377 57.4 159.71 58.5333 160.644 60.8L185.244 115.8H186.444L210.644 60.8C211.444 58.5333 212.777 57.4 214.644 57.4H230.644C231.71 57.4 232.444 57.7333 232.844 58.4C233.377 59.0667 233.377 59.9333 232.844 61L195.444 138.4V182.6C195.444 184.867 194.31 186 192.044 186ZM339.206 186H274.406C272.14 186 271.006 184.867 271.006 182.6V60.8C271.006 58.5333 272.14 57.4 274.406 57.4H287.006C289.273 57.4 290.406 58.5333 290.406 60.8V166.6C290.406 167.933 291.206 168.6 292.806 168.6H339.206C341.473 168.6 342.606 169.8 342.606 172.2V182.6C342.606 184.867 341.473 186 339.206 186ZM401.445 60.8V182.6C401.445 184.867 400.312 186 398.045 186H385.445C383.179 186 382.045 184.867 382.045 182.6V60.8C382.045 58.5333 383.179 57.4 385.445 57.4H398.045C400.312 57.4 401.445 58.5333 401.445 60.8ZM458.631 186H444.231C442.365 186 441.698 184.867 442.231 182.6L477.031 60.8C477.698 58.5333 479.298 57.4 481.831 57.4H501.831C504.498 57.4 506.098 58.5333 506.631 60.8L541.431 182.6C541.965 184.867 541.231 186 539.231 186H525.031C523.831 186 522.965 185.8 522.431 185.4C522.031 184.867 521.698 183.933 521.431 182.6L513.831 156.6H469.831L462.231 182.6C461.698 184.867 460.498 186 458.631 186ZM491.431 76.6L473.831 140.6H510.031L492.231 76.6H491.431ZM597.002 186H584.602C582.335 186 581.202 184.867 581.202 182.6V60.8C581.202 58.5333 582.335 57.4 584.602 57.4H595.802C597.935 57.4 599.402 58.1333 600.202 59.6L648.602 146.6H649.402V60.8C649.402 58.5333 650.535 57.4 652.802 57.4H665.202C667.468 57.4 668.602 58.5333 668.602 60.8V182.6C668.602 184.867 667.468 186 665.202 186H654.402C652.268 186 650.535 184.933 649.202 182.8L601.202 96.8H600.402V182.6C600.402 184.867 599.268 186 597.002 186Z" fill="#EDE6D6"/>
<path d="M66.8 441H43.6C33.7333 441 26.0667 438.267 20.6 432.8C15.2667 427.333 12.6 419.733 12.6 410V343.4C12.6 333.533 15.2667 325.933 20.6 320.6C26.0667 315.133 33.7333 312.4 43.6 312.4H66.8C76.5333 312.4 84.1333 315.133 89.6 320.6C95.0667 325.933 97.8 333.533 97.8 343.4V353C97.8 355.4 96.6 356.6 94.2 356.6H81.6C79.3333 356.6 78.2 355.4 78.2 353V344.2C78.2 334.333 73.4 329.4 63.8 329.4H46.4C36.8 329.4 32 334.333 32 344.2V409.2C32 419.067 36.8 424 46.4 424H63.8C73.4 424 78.2 419.067 78.2 409.2V400.4C78.2 398 79.3333 396.8 81.6 396.8H94.2C96.6 396.8 97.8 398 97.8 400.4V410C97.8 419.733 95.0667 427.333 89.6 432.8C84.1333 438.267 76.5333 441 66.8 441ZM174.408 424H191.808C201.541 424 206.408 419.067 206.408 409.2V344.2C206.408 334.333 201.541 329.4 191.808 329.4H174.408C164.808 329.4 160.008 334.333 160.008 344.2V409.2C160.008 419.067 164.808 424 174.408 424ZM194.808 441H171.608C161.741 441 154.074 438.267 148.608 432.8C143.274 427.333 140.608 419.733 140.608 410V343.4C140.608 333.533 143.274 325.933 148.608 320.6C154.074 315.133 161.741 312.4 171.608 312.4H194.808C204.674 312.4 212.341 315.133 217.808 320.6C223.274 325.933 226.008 333.533 226.008 343.4V410C226.008 419.733 223.274 427.333 217.808 432.8C212.341 438.267 204.674 441 194.808 441ZM304.759 424H322.159C331.893 424 336.759 419.067 336.759 409.2V344.2C336.759 334.333 331.893 329.4 322.159 329.4H304.759C295.159 329.4 290.359 334.333 290.359 344.2V409.2C290.359 419.067 295.159 424 304.759 424ZM325.159 441H301.959C292.093 441 284.426 438.267 278.959 432.8C273.626 427.333 270.959 419.733 270.959 410V343.4C270.959 333.533 273.626 325.933 278.959 320.6C284.426 315.133 292.093 312.4 301.959 312.4H325.159C335.026 312.4 342.693 315.133 348.159 320.6C353.626 325.933 356.359 333.533 356.359 343.4V410C356.359 419.733 353.626 427.333 348.159 432.8C342.693 438.267 335.026 441 325.159 441ZM419.311 441H406.711C404.444 441 403.311 439.867 403.311 437.6V315.8C403.311 313.533 404.444 312.4 406.711 312.4H419.311C421.578 312.4 422.711 313.533 422.711 315.8V379.2H423.311C424.644 375.6 426.378 372.267 428.511 369.2L466.711 315.8C468.178 313.533 470.311 312.4 473.111 312.4H487.911C490.711 312.4 491.178 313.667 489.311 316.2L450.311 369.2L494.311 437C495.911 439.667 495.111 441 491.911 441H480.711C477.111 441 474.578 439.867 473.111 437.6L438.511 383.4L422.711 402V437.6C422.711 439.867 421.578 441 419.311 441ZM554.481 424.4H582.481C592.481 424.4 597.481 419.6 597.481 410V397.6C597.481 388 592.215 383.2 581.681 383.2H554.481C553.015 383.2 552.281 383.867 552.281 385.2V422.4C552.281 423.733 553.015 424.4 554.481 424.4ZM554.481 367.2H580.481C590.615 367.2 595.681 362.333 595.681 352.6V343.4C595.681 333.8 590.748 329 580.881 329H554.481C553.015 329 552.281 329.667 552.281 331V365.2C552.281 366.533 553.015 367.2 554.481 367.2ZM532.881 437.6V315.8C532.881 313.533 534.015 312.4 536.281 312.4H583.681C593.548 312.4 601.215 315.067 606.681 320.4C612.148 325.733 614.881 333.267 614.881 343V352.8C614.881 364.4 609.415 371.867 598.481 375.2C603.681 375.867 607.948 378.133 611.281 382C614.748 385.867 616.481 391.067 616.481 397.6V410.4C616.481 420.133 613.748 427.667 608.281 433C602.815 438.333 595.215 441 585.481 441H536.281C534.015 441 532.881 439.867 532.881 437.6ZM695.033 424H712.433C722.166 424 727.033 419.067 727.033 409.2V344.2C727.033 334.333 722.166 329.4 712.433 329.4H695.033C685.433 329.4 680.633 334.333 680.633 344.2V409.2C680.633 419.067 685.433 424 695.033 424ZM715.433 441H692.233C682.366 441 674.699 438.267 669.233 432.8C663.899 427.333 661.233 419.733 661.233 410V343.4C661.233 333.533 663.899 325.933 669.233 320.6C674.699 315.133 682.366 312.4 692.233 312.4H715.433C725.299 312.4 732.966 315.133 738.433 320.6C743.899 325.933 746.633 333.533 746.633 343.4V410C746.633 419.733 743.899 427.333 738.433 432.8C732.966 438.267 725.299 441 715.433 441ZM825.384 424H842.784C852.518 424 857.384 419.067 857.384 409.2V344.2C857.384 334.333 852.518 329.4 842.784 329.4H825.384C815.784 329.4 810.984 334.333 810.984 344.2V409.2C810.984 419.067 815.784 424 825.384 424ZM845.784 441H822.584C812.718 441 805.051 438.267 799.584 432.8C794.251 427.333 791.584 419.733 791.584 410V343.4C791.584 333.533 794.251 325.933 799.584 320.6C805.051 315.133 812.718 312.4 822.584 312.4H845.784C855.651 312.4 863.318 315.133 868.784 320.6C874.251 325.933 876.984 333.533 876.984 343.4V410C876.984 419.733 874.251 427.333 868.784 432.8C863.318 438.267 855.651 441 845.784 441ZM939.936 441H927.336C925.069 441 923.936 439.867 923.936 437.6V315.8C923.936 313.533 925.069 312.4 927.336 312.4H939.936C942.203 312.4 943.336 313.533 943.336 315.8V379.2H943.936C945.269 375.6 947.003 372.267 949.136 369.2L987.336 315.8C988.803 313.533 990.936 312.4 993.736 312.4H1008.54C1011.34 312.4 1011.8 313.667 1009.94 316.2L970.936 369.2L1014.94 437C1016.54 439.667 1015.74 441 1012.54 441H1001.34C997.736 441 995.203 439.867 993.736 437.6L959.136 383.4L943.336 402V437.6C943.336 439.867 942.203 441 939.936 441Z" fill="#5FE1E8"/>
</g>
<defs>
<clipPath id="clip0_23_45">
<rect width="1019" height="441" fill="white"/>
</clipPath>
</defs>
</svg>
