<svg width="512" height="512" viewBox="0 0 512 512" fill="none" xmlns="http://www.w3.org/2000/svg">
<path d="M309.333 352C312.162 352 314.875 350.877 316.876 348.876C318.876 346.876 320 344.163 320 341.334V284.267C320 279.392 323.371 275.264 327.755 273.163C336.832 268.833 344.087 261.436 348.241 252.276C352.395 243.117 353.18 232.785 350.458 223.104C347.735 213.422 341.681 205.014 333.362 199.362C325.043 193.71 314.995 191.178 304.992 192.214C300.872 182.637 294.036 174.478 285.329 168.745C276.621 163.012 266.425 159.957 256 159.957C245.575 159.957 235.378 163.012 226.671 168.745C217.964 174.478 211.128 182.637 207.008 192.214C197.009 191.186 186.968 193.721 178.655 199.372C170.343 205.024 164.292 213.429 161.571 223.105C158.85 232.782 159.632 243.108 163.78 252.264C167.928 261.42 175.176 268.818 184.245 273.152C188.629 275.264 192 279.392 192 284.256V341.334C192 344.163 193.124 346.876 195.124 348.876C197.124 350.877 199.838 352 202.667 352H309.333Z" stroke="#EDE6D6" stroke-width="21.3333" stroke-linecap="round" stroke-linejoin="round"/>
<path d="M192 309.333H320" stroke="#EDE6D6" stroke-width="21.3333" stroke-linecap="round" stroke-linejoin="round"/>
</svg>
