<svg width="1024" height="1024" viewBox="0 0 1024 1024" fill="none" xmlns="http://www.w3.org/2000/svg">
<path d="M696 534H836V704H976L766 984L556 704H696V534Z" fill="#FBFBE1"/>
<path d="M604 512C604 600.366 532.366 672 444 672C355.634 672 284 600.366 284 512C284 423.634 355.634 352 444 352C532.366 352 604 423.634 604 512Z" fill="#FF9902"/>
<path d="M524 202C524 246.183 488.183 282 444 282C399.817 282 364 246.183 364 202C364 157.817 399.817 122 444 122C488.183 122 524 157.817 524 202Z" fill="#FF9902"/>
<path d="M264 368C264 412.183 228.183 448 184 448C139.817 448 104 412.183 104 368C104 323.817 139.817 288 184 288C228.183 288 264 323.817 264 368Z" fill="#FF9902"/>
<path d="M264 662C264 706.183 228.183 742 184 742C139.817 742 104 706.183 104 662C104 617.817 139.817 582 184 582C228.183 582 264 617.817 264 662Z" fill="#FF9902"/>
<path d="M524 822C524 866.183 488.183 902 444 902C399.817 902 364 866.183 364 822C364 777.817 399.817 742 444 742C488.183 742 524 777.817 524 822Z" fill="#FF9902"/>
<path d="M794 368C794 412.183 758.183 448 714 448C669.817 448 634 412.183 634 368C634 323.817 669.817 288 714 288C758.183 288 794 323.817 794 368Z" fill="#FF9902"/>
</svg>
