<svg width="1024" height="1024" viewBox="0 0 1024 1024" fill="none" xmlns="http://www.w3.org/2000/svg">
<path d="M514 120C654.04 120 783.46 194.72 853.48 316C867.18 339.72 878.36 364.8 886.82 390.86L618.62 478C606.48 440.62 575.32 412.58 536.88 404.4C529.36 402.8 521.68 402 514 402V120ZM886.82 390.86C930.1 524.06 899.04 670.22 805.32 774.3C787 794.66 766.58 813.04 744.42 829.14L578.66 601C610.46 577.9 627.5 539.58 623.4 500.5C622.6 492.86 621 485.32 618.62 478L886.82 390.86ZM744.42 829.14C631.12 911.46 482.5 927.06 354.56 870.1C329.54 858.96 305.74 845.24 283.58 829.14L449.34 601C481.14 624.1 522.84 628.48 558.74 612.5C565.76 609.38 572.44 605.52 578.66 601L744.42 829.14ZM283.58 829.14C170.28 746.82 109.5 610.3 124.14 471.02C127 443.78 132.72 416.92 141.18 390.86L409.38 478C397.24 515.38 405.96 556.4 432.26 585.6C437.4 591.32 443.12 596.48 449.34 601L283.58 829.14ZM141.18 390.86C184.46 257.66 295.52 157.68 432.5 128.56C459.3 122.86 486.6 120 514 120V402C474.7 402 438.38 422.96 418.74 457C414.9 463.66 411.76 470.68 409.38 478L141.18 390.86Z" fill="#807E7E"/>
<path d="M886.82 390.86C930.1 524.06 899.04 670.22 805.32 774.3C787 794.66 766.58 813.04 744.42 829.14L578.66 601C610.46 577.9 627.5 539.58 623.4 500.5C622.6 492.86 621 485.32 618.62 478L886.82 390.86Z" fill="#05E704"/>
<path d="M744.42 829.14C631.12 911.46 482.5 927.06 354.56 870.1C329.54 858.96 305.74 845.24 283.58 829.14L449.34 601C481.14 624.1 522.84 628.48 558.74 612.5C565.76 609.38 572.44 605.52 578.66 601L744.42 829.14Z" fill="#05E704"/>
<path d="M283.58 829.14C170.28 746.82 109.5 610.3 124.14 471.02C127 443.78 132.72 416.92 141.18 390.86L409.38 478C397.24 515.38 405.96 556.4 432.26 585.6C437.4 591.32 443.12 596.48 449.34 601L283.58 829.14Z" fill="#05E704"/>
<path d="M141.18 390.86C184.46 257.66 295.52 157.68 432.5 128.56C459.3 122.86 486.6 120 514 120V402C474.7 402 438.38 422.96 418.74 457C414.9 463.66 411.76 470.68 409.38 478L141.18 390.86Z" fill="#05E704"/>
</svg>
