<svg width="1024" height="1024" viewBox="0 0 1024 1024" fill="none" xmlns="http://www.w3.org/2000/svg">
<path d="M805.473 738.731C757.098 845.419 648.918 922.161 519.778 922.161C390.638 922.161 221.091 871.997 195.301 688.778C169.512 505.559 214.833 414.702 287.371 334.497C359.909 254.292 406.449 234.954 430.434 203.044C454.418 171.134 443.428 116.278 459.372 105.661C475.316 95.0442 498.642 93.2402 517.614 156.442C536.586 219.645 531.27 256.926 512.739 295.63C484.025 355.599 402.759 448.45 454.38 536.052C506.001 623.654 608.114 601.961 648.919 557.318C689.724 512.675 667.239 475.045 629.075 399.638C590.911 324.231 614.333 266.865 667.239 286.88C720.145 306.896 768.747 404.695 805.473 458.786C842.199 512.877 853.848 632.044 805.473 738.731Z" fill="#EC444A"/>
</svg>
