<svg width="1024" height="1024" viewBox="0 0 1024 1024" fill="none" xmlns="http://www.w3.org/2000/svg">
<path d="M510.399 824C545.829 824 910.716 514.003 912.399 376C914.399 212 800.399 202 726.399 202C600.399 202 550.399 336 510.399 336C470.399 336 414.399 202 288.399 202C214.399 202 100.399 211.993 108.399 376C115.126 513.903 474.969 824 510.399 824Z" fill="#807E7E"/>
<path d="M510.4 512C510.4 512 510 388.484 510.399 336C470.399 336 414.399 202 288.399 202C214.399 202 100.399 211.993 108.399 376C110.171 412.335 136.458 460.623 174.86 512H510.4Z" fill="#EC2434"/>
</svg>
