<svg width="1024" height="1024" viewBox="0 0 1024 1024" fill="none" xmlns="http://www.w3.org/2000/svg">
<path d="M512 800C660 800 744 722.874 744 636C744 549.126 660 440 596 440C532 440 564 480 512 480C460 480 492 440 428 440C364 440 280 542.88 280 636C280 729.12 364 800 512 800ZM474 416C469.664 386.359 473.979 237.492 518.719 220.234C563.459 202.976 703.724 310.131 676.532 344.297C658.403 367.074 593.047 364.366 558.001 416C536.997 446.945 478.145 444.33 474.001 416H474Z" fill="#F3F3CF"/>
</svg>
