<svg width="1024" height="1024" viewBox="0 0 1024 1024" fill="none" xmlns="http://www.w3.org/2000/svg">
<path d="M190 280C250 280 260 180 320 180C380 180 390 280 450 280C510 280 520 180 580 180C640 180 650 280 710 280C770 280 780 180 840 180C900 180 900 340 840 340C780 340 770 440 710 440C650 440 640 340 580 340C520 340 510 440 450 440C390 440 380 340 320 340C260 340 250 440 190 440C130 440 130 280 190 280ZM190 662C250 662 260 562 320 562C380 562 390 662 450 662C510 662 520 562 580 562C640 562 650 662 710 662C770 662 780 562 840 562C900 562 900 722 840 722C780 722 770 822 710 822C650 822 640 722 580 722C520 722 510 822 450 822C390 822 380 722 320 722C260 722 250 822 190 822C130 822 130 662 190 662Z" fill="#D03BFE"/>
</svg>
