<svg width="1024" height="1024" viewBox="0 0 1024 1024" fill="none" xmlns="http://www.w3.org/2000/svg">
<path d="M364 153.998C364 120.862 390.875 94 423.994 94H438.006C471.14 94 498 120.872 498 153.998V363.966L679.249 259.151C707.93 242.565 744.718 252.33 761.409 280.947L768.552 293.193C785.247 321.816 775.511 358.456 746.827 375.018L565.011 480L746.827 584.982C775.52 601.55 785.343 638.253 768.784 666.933L761.778 679.067C745.211 707.76 708.511 717.584 679.825 701.022L498.001 596.04V806.003C498.001 839.138 471.126 866 438.007 866H423.995C390.861 866 364.001 839.128 364.001 806.003V596.04L182.177 701.022C153.483 717.59 116.783 707.747 100.224 679.067L93.2182 666.933C76.6512 638.24 86.4982 601.544 115.192 584.982L297.068 480L115.192 375.018C86.4892 358.45 76.6592 321.747 93.2182 293.067L100.224 280.933C116.791 252.24 153.491 242.416 182.177 258.98L364.001 363.967V153.999L364 153.998Z" fill="#A3FCFE"/>
<path d="M682 510H822V680H962L752 960L542 680H682V510Z" fill="#FBFBE1"/>
</svg>
