<svg width="1024" height="1024" viewBox="0 0 1024 1024" fill="none" xmlns="http://www.w3.org/2000/svg">
<path d="M272 140C384 260 510 260 622 140C854 310 854 310 854 310L722 470L654 410L704 800H190L240 410L172 470L40 310C40 310 40 310 272 140ZM447 422C476.271 422 500 398.271 500 369C500 339.729 476.271 316 447 316C417.729 316 394 339.729 394 369C394 398.271 417.729 422 447 422ZM447 570C476.271 570 500 546.271 500 517C500 487.729 476.271 464 447 464C417.729 464 394 487.729 394 517C394 546.271 417.729 570 447 570Z" fill="#F3F3CF"/>
<path d="M558 720L768 440L978 720H838V890H698V720H558Z" fill="#FBFBE1"/>
</svg>
